<svg width="16" height="16" viewBox="0 0 16 16" fill="none" xmlns="http://www.w3.org/2000/svg">
<g clip-path="url(#clip0_7_2)">
<path d="M0.479403 10V5.63636H1.11648V7.25781H1.15483C1.19176 7.18963 1.24503 7.1108 1.31463 7.02131C1.38423 6.93182 1.48082 6.85369 1.6044 6.78693C1.72798 6.71875 1.89134 6.68466 2.09446 6.68466C2.35866 6.68466 2.59446 6.75142 2.80185 6.88494C3.00923 7.01847 3.17188 7.21094 3.28977 7.46236C3.40909 7.71378 3.46875 8.01634 3.46875 8.37003C3.46875 8.72372 3.4098 9.02699 3.2919 9.27983C3.17401 9.53125 3.01207 9.72514 2.80611 9.86151C2.60014 9.99645 2.36506 10.0639 2.10085 10.0639C1.90199 10.0639 1.73935 10.0305 1.61293 9.96378C1.48793 9.89702 1.38991 9.81889 1.31889 9.7294C1.24787 9.63991 1.19318 9.56037 1.15483 9.49077H1.10156V10H0.479403ZM1.10369 8.36364C1.10369 8.59375 1.13707 8.79545 1.20384 8.96875C1.2706 9.14205 1.36719 9.2777 1.49361 9.37571C1.62003 9.4723 1.77486 9.5206 1.9581 9.5206C2.14844 9.5206 2.30753 9.47017 2.43537 9.36932C2.56321 9.26705 2.6598 9.12855 2.72514 8.95384C2.7919 8.77912 2.82528 8.58239 2.82528 8.36364C2.82528 8.14773 2.79261 7.95384 2.72727 7.78196C2.66335 7.61009 2.56676 7.47443 2.4375 7.375C2.30966 7.27557 2.14986 7.22585 1.9581 7.22585C1.77344 7.22585 1.61719 7.27344 1.48935 7.36861C1.36293 7.46378 1.26705 7.59659 1.2017 7.76705C1.13636 7.9375 1.10369 8.13636 1.10369 8.36364ZM5.47464 10.0661C5.15219 10.0661 4.8745 9.99716 4.64154 9.85938C4.41001 9.72017 4.23103 9.52486 4.10461 9.27344C3.97961 9.0206 3.91711 8.72443 3.91711 8.38494C3.91711 8.04972 3.97961 7.75426 4.10461 7.49858C4.23103 7.2429 4.40717 7.04332 4.63302 6.89986C4.86029 6.75639 5.12592 6.68466 5.42989 6.68466C5.61455 6.68466 5.79353 6.7152 5.96683 6.77628C6.14012 6.83736 6.29566 6.93324 6.43344 7.06392C6.57123 7.1946 6.67989 7.36435 6.75944 7.57315C6.83898 7.78054 6.87876 8.03267 6.87876 8.32955V8.5554H4.27719V8.07812H6.25447C6.25447 7.91051 6.22038 7.76207 6.15219 7.63281C6.08401 7.50213 5.98813 7.39915 5.86455 7.32386C5.74239 7.24858 5.59893 7.21094 5.43415 7.21094C5.25518 7.21094 5.09893 7.25497 4.96541 7.34304C4.8333 7.42969 4.73103 7.54332 4.65859 7.68395C4.58756 7.82315 4.55205 7.97443 4.55205 8.13778V8.51065C4.55205 8.7294 4.5904 8.91548 4.66711 9.06889C4.74523 9.2223 4.8539 9.33949 4.9931 9.42045C5.13231 9.5 5.29495 9.53977 5.48103 9.53977C5.60177 9.53977 5.71185 9.52273 5.81129 9.48864C5.91072 9.45312 5.99666 9.40057 6.0691 9.33097C6.14154 9.26136 6.19694 9.17543 6.23529 9.07315L6.83827 9.18182C6.78998 9.35937 6.70333 9.51491 6.57833 9.64844C6.45475 9.78054 6.29921 9.88352 6.11171 9.95739C5.92563 10.0298 5.71327 10.0661 5.47464 10.0661Z" fill="#283D4E"/>
<path d="M9.47911 8.58736V6.72727H10.5189V10H9.52598V9.39062H9.49189C9.41945 9.59091 9.29587 9.75 9.12115 9.8679C8.94786 9.98437 8.73834 10.0426 8.4926 10.0426C8.26959 10.0426 8.07357 9.99148 7.90453 9.8892C7.7355 9.78693 7.60411 9.64418 7.51036 9.46094C7.41661 9.27628 7.36902 9.06037 7.3676 8.81321V6.72727H8.4095V8.60866C8.41092 8.78622 8.4578 8.92614 8.55013 9.02841C8.64246 9.13068 8.76817 9.18182 8.92726 9.18182C9.03095 9.18182 9.12399 9.15909 9.20638 9.11364C9.29018 9.06676 9.35624 8.99929 9.40453 8.91122C9.45425 8.82173 9.47911 8.71378 9.47911 8.58736ZM12.104 8.13352V10H11.0621V6.72727H12.0528V7.32812H12.089C12.1615 7.12784 12.2851 6.97088 12.4598 6.85724C12.6345 6.74219 12.8426 6.68466 13.0841 6.68466C13.3142 6.68466 13.5138 6.73651 13.6828 6.8402C13.8532 6.94247 13.9853 7.08594 14.0791 7.2706C14.1743 7.45384 14.2211 7.66832 14.2197 7.91406V10H13.1778V8.11861C13.1792 7.93679 13.1331 7.79474 13.0393 7.69247C12.947 7.5902 12.8184 7.53906 12.6537 7.53906C12.5443 7.53906 12.4477 7.56321 12.3639 7.61151C12.2815 7.65838 12.2176 7.72585 12.1721 7.81392C12.1281 7.90199 12.1054 8.00852 12.104 8.13352ZM14.7448 10V6.72727H15.7867V10H14.7448ZM15.2668 6.34588C15.1205 6.34588 14.9948 6.29759 14.8897 6.20099C14.7846 6.10298 14.732 5.98509 14.732 5.8473C14.732 5.71094 14.7846 5.59446 14.8897 5.49787C14.9948 5.39986 15.1205 5.35085 15.2668 5.35085C15.4145 5.35085 15.5402 5.39986 15.6439 5.49787C15.749 5.59446 15.8016 5.71094 15.8016 5.8473C15.8016 5.98509 15.749 6.10298 15.6439 6.20099C15.5402 6.29759 15.4145 6.34588 15.2668 6.34588Z" fill="#FF5F03"/>
</g>
<defs>
<clipPath id="clip0_7_2">
<rect width="16" height="16" fill="white"/>
</clipPath>
</defs>
</svg>
